HIERARCHY
ROOT Hips
{
  OFFSET 58.0398 88.6325 190.615
  CHANNELS 6 Xposition Yposition Zposition Zrotation Xrotation Yrotation
  JOINT ToSpine
  {
    OFFSET -2.69724 7.43032 -0.144315
    CHANNELS 3 Zrotation Xrotation Yrotation
    JOINT Spine
    {
      OFFSET -0.0310711 10.7595 1.96963
      CHANNELS 3 Zrotation Xrotation Yrotation
      JOINT Spine1
      {
        OFFSET 13.1342 3.43533 0.764692
        CHANNELS 3 Zrotation Xrotation Yrotation
        JOINT Neck
        {
          OFFSET 29.8703 7.82586 -0.130764
          CHANNELS 3 Zrotation Xrotation Yrotation
          JOINT Head
          {
            OFFSET 9.52751 0.295786 -0.907742
            CHANNELS 3 Zrotation Xrotation Yrotation
            End Site
            {
              OFFSET 16.4037 0.713936 2.7358
            }
          }
        }
        JOINT LeftShoulder
        {
          OFFSET 27.5574 4.95586 2.47156
          CHANNELS 3 Zrotation Xrotation Yrotation
          JOINT LeftArm
          {
            OFFSET 1.20734 -0.998971 20.1238
            CHANNELS 3 Zrotation Xrotation Yrotation
            JOINT LeftForeArm
            {
              OFFSET 26.8049 -0.0536703 -0.155908
              CHANNELS 3 Zrotation Xrotation Yrotation
              JOINT LeftHand
              {
                OFFSET 26.6817 0 0.320147
                CHANNELS 3 Zrotation Xrotation Yrotation
                End Site
                {
                  OFFSET 18.6119 0 0.382219
                }
              }
            }
          }
        }
        JOINT RightShoulder
        {
          OFFSET 27.5927 4.71444 -2.65209
          CHANNELS 3 Zrotation Xrotation Yrotation
          JOINT RightArm
          {
            OFFSET 2.83739 -1.17114 -18.7564
            CHANNELS 3 Zrotation Xrotation Yrotation
            JOINT RightForeArm
            {
              OFFSET 28.839 -0.0548439 1.22491
              CHANNELS 3 Zrotation Xrotation Yrotation
              JOINT RightHand
              {
                OFFSET 26.5114 0 -0.101894
                CHANNELS 3 Zrotation Xrotation Yrotation
                End Site
                {
                  OFFSET 18.2168 0 0
                }
              }
            }
          }
        }
      }
    }
  }
  JOINT LeftUpLeg
  {
    OFFSET -4.76168 -1.9167 -10.2353
    CHANNELS 3 Zrotation Xrotation Yrotation
    JOINT LeftLeg
    {
      OFFSET 2.55951 -42.0585 -8.02213
      CHANNELS 3 Zrotation Xrotation Yrotation
      JOINT LeftFoot
      {
        OFFSET 3.16357 -42.5282 -3.95426
        CHANNELS 3 Zrotation Xrotation Yrotation
        JOINT LeftToeBase
        {
          OFFSET 0.346054 -6.02161 12.8035
          CHANNELS 3 Zrotation Xrotation Yrotation
          End Site
          {
            OFFSET 0.134235 -1.35082 5.13018
          }
        }
      }
    }
  }
  JOINT RightUpLeg
  {
    OFFSET -4.94151 -1.41743 10.6446
    CHANNELS 3 Zrotation Xrotation Yrotation
    JOINT RightLeg
    {
      OFFSET -2.56294 -42.0364 -7.94377
      CHANNELS 3 Zrotation Xrotation Yrotation
      JOINT RightFoot
      {
        OFFSET -3.0952 -42.555 -4.02241
        CHANNELS 3 Zrotation Xrotation Yrotation
        JOINT RightToeBase
        {
          OFFSET -0.0828122 -6.13587 12.8035
          CHANNELS 3 Zrotation Xrotation Yrotation
          End Site
          {
            OFFSET -0.131328 -1.35082 5.13018
          }
        }
      }
    }
  }
}
MOTION
Frames:	13
Frame Time:	0.0333333
60.4289 94.1717 158.655 68.1397 -36.9815 -11.2011 -70.1915 0 88.8779 73.4223 70.5914 7.09689 3.5715 18.0052 9.42607 -122.808 32.6667 155.123 -173.347 77.2228 -160.084 -0.0448219 -16.6443 -27.0246 -70.4174 36.2241 -139.592 14.9471 -4.07552 -104.068 0.420957 0.000575954 0.35866 -1.66565 6.13333 41.7713 -129.655 -13.4366 71.8225 6.22809 2.59632 111.995 0.58676 0.000331093 0.0646653 -51.6248 8.82311 99.9332 -1.92086 40.9433 0.0566676 1.32382 -17.5784 -1.46434 2.46559 -8.13596 11.2462 -31.7827 -13.8734 83.8655 2.04866 35.3073 5.90921 0.330423 5.56734 -0.339909 1.08334 -10.6611 2.93396 
60.4977 94.1545 158.688 68.2653 -37.1775 -11.2298 -70.1915 0 88.8779 73.0844 70.5674 7.73479 4.01132 18.181 8.85847 -122.786 32.676 155.14 -174.339 77.2142 -159.121 -0.0326295 -16.6488 -26.807 -70.5781 36.2534 -139.744 14.8487 -3.9581 -103.758 0.420957 0.000575954 0.35866 -1.70007 6.18546 42.0771 -129.609 -13.2366 72.1059 6.10702 2.53305 111.888 0.58676 0.000331093 0.0646653 -51.917 8.8816 100.211 -1.8832 40.8738 0.298703 1.31534 -17.4691 -1.45681 2.6592 -8.28354 10.3695 -31.8951 -13.6792 84.2555 1.98753 35.3002 5.34058 -0.0789684 5.45745 -0.258665 1.16059 -11.1969 2.99173 
60.4864 94.1379 158.714 68.1109 -37.0628 -11.2925 -70.1915 0 88.8779 72.5058 70.4576 8.461 4.30945 18.1731 8.66866 -123.25 32.8035 155.124 -172.655 77.3024 -161.094 -0.0126359 -16.5777 -26.671 -70.4677 36.3001 -139.898 14.7541 -3.97171 -103.89 0.420957 0.000575954 0.35866 -1.65428 6.17644 41.3975 -129.825 -13.961 71.7201 6.4098 2.66547 111.956 0.58676 0.000331093 0.0646653 -51.6812 8.75355 99.8585 -1.89375 40.995 0.314496 0.872565 -17.7418 -1.48894 2.48616 -8.08342 10.8226 -31.6794 -13.8381 84.0168 2.02899 35.4852 5.58846 -0.226266 5.52151 -0.237317 1.10113 -11.0145 3.4619 
60.4957 94.0985 158.765 68.2066 -37.0481 -11.1669 -70.1915 0 88.8779 72.8782 70.4285 8.31663 4.45261 18.2229 8.31163 -123.263 32.6926 154.835 -172.278 77.2782 -161.638 -0.0049714 -16.6022 -26.472 -70.4895 36.3658 -140.038 14.7503 -3.96974 -103.892 0.420957 0.000575954 0.35866 -1.66756 6.15727 41.6931 -129.715 -13.705 72.1262 6.18368 2.55048 111.781 0.58676 0.000331093 0.0646653 -51.6956 8.90012 99.9185 -1.89582 41.1331 0.411813 1.2239 -17.7241 -1.47755 2.63834 -8.25294 10.3934 -31.7119 -13.8317 83.9037 2.0039 35.6629 5.2196 -0.199747 5.28186 -0.224194 1.13114 -11.3105 3.71183 
60.5228 94.0535 158.841 68.2461 -36.8902 -11.2266 -70.1915 0 88.8779 72.7792 70.3279 8.2483 4.41581 18.119 8.30527 -123.137 32.6417 155.132 -174.87 77.1343 -159.057 -0.0130652 -16.6538 -26.4643 -70.6132 36.5432 -139.669 14.8695 -4.07168 -104.131 0.420957 0.000575954 0.35866 -1.70719 6.2247 42.0109 -129.67 -13.4849 72.3546 6.06157 2.50151 111.785 0.58676 0.000331093 0.0646653 -51.7306 8.83692 99.979 -1.95424 41.1547 -0.0328013 1.37581 -17.6361 -1.46699 2.70456 -8.51735 11.156 -31.5321 -13.8039 84.3288 2.06654 36.2069 5.45434 -0.269563 4.72712 -0.170949 1.24759 -11.235 1.74978 
60.5134 94.0466 158.996 68.4008 -36.8557 -11.1432 -70.1915 0 88.8779 73.5496 70.2335 7.75016 4.47498 18.1385 7.69354 -123.396 32.4931 154.833 -171.853 77.0794 -162.036 0.0888975 -16.2667 -25.7848 -70.2714 36.7705 -140.155 14.9714 -4.14306 -104.276 0.420957 0.000575954 0.35866 -1.72954 6.25487 42.2225 -129.646 -13.4694 72.5839 6.36008 2.5976 111.598 0.58676 0.000331093 0.0646653 -51.9952 8.95886 100.088 -1.95809 41.004 -0.189757 1.241 -17.7216 -1.47688 2.67349 -8.41219 10.8884 -31.4661 -13.8658 84.2218 2.17079 36.8153 6.03037 -0.605838 3.91438 -0.0557166 1.2361 -10.4343 0.354043 
60.5971 93.9872 159.202 68.4952 -37.0105 -11.1355 -70.1915 0 88.8779 74.0982 70.2867 7.41599 4.40572 18.2694 7.30078 -123.305 32.3918 154.592 -172.54 77.0548 -161.38 0.0977423 -16.2463 -25.6841 -70.1392 36.8136 -139.902 14.4516 -4.04491 -104.457 0.420957 0.000575954 0.35866 -1.69076 6.1357 42.1577 -129.403 -13.941 72.415 6.26215 2.60788 111.977 0.58676 0.000331093 0.0646653 -52.2723 9.25955 100.501 -2.05475 41.1225 -0.865637 1.23909 -17.9822 -1.49566 2.561 -8.37494 11.6436 -31.2158 -13.5865 84.5787 2.1959 37.6462 5.72664 -1.33591 3.17574 0.111847 1.26435 -10.0444 -0.676808 
60.581 93.9252 159.5 68.6196 -37.0133 -11.3766 -70.1915 0 88.8779 74.5213 70.4927 6.43169 3.92071 18.3558 7.55071 -123.045 32.2919 154.221 -171.574 77.1032 -162.267 0.0772246 -16.3396 -25.7864 -70.0582 36.483 -139.241 14.9575 -4.2476 -104.647 0.420957 0.000575954 0.35866 -1.73453 6.25782 42.2866 -129.476 -13.5839 71.8876 5.9336 2.49892 112.18 0.58676 0.000331093 0.0646653 -52.6934 9.11033 100.7 -2.05656 40.8368 -1.12672 1.60192 -17.6286 -1.46019 2.80787 -8.87042 12.1025 -30.6902 -13.517 85.3098 2.33114 38.9873 6.02986 -1.09161 1.98446 0.153345 1.41969 -9.22683 -3.72425 
60.6032 93.7798 159.896 68.6054 -37.0247 -11.6941 -70.1915 0 88.8779 75.0227 70.6139 5.69872 3.42229 18.4788 7.44502 -122.596 32.2643 153.992 -172.057 77.1928 -161.265 0.0496443 -16.4354 -26.0015 -70.1775 36.0879 -138.541 14.8398 -4.20335 -104.614 0.420957 0.000575954 0.35866 -1.7259 6.15606 42.6176 -129.112 -13.2181 71.8186 5.83932 2.49059 112.429 0.58676 0.000331093 0.0646653 -52.9768 9.07519 100.957 -2.10821 40.8061 -1.57032 1.78356 -17.2323 -1.42872 3.42147 -9.97451 12.7127 -29.9348 -13.5243 85.647 2.52898 40.5552 6.62058 -3.5859 1.99962 0.519529 1.808 -11.5303 -6.60469 
60.6273 93.5959 160.262 68.0667 -37.1745 -12.195 -70.1915 0 88.8779 74.9791 70.544 5.78442 2.90821 18.4496 7.44957 -123.159 32.2978 154.295 -171.784 77.0715 -162.053 0.121835 -16.0974 -25.6735 -69.9437 36.1493 -138.867 14.8514 -4.10317 -104.257 0.420957 0.000575954 0.35866 -1.75455 6.30381 42.3882 -128.467 -13.6447 71.6074 5.20739 2.25849 112.742 0.58676 0.000331093 0.0646653 -52.7029 9.17749 100.81 -2.20963 41.1771 -2.20932 0.504661 -18.2694 -1.54106 3.15431 -9.90817 14.8809 -28.3447 -13.3149 86.361 2.78344 42.8733 6.82556 -0.206555 -0.163016 0.183919 1.70755 -8.49772 -7.7179 
60.7096 93.2899 160.742 67.513 -37.9222 -12.7919 -70.1915 0 88.8779 75.2489 70.711 6.26561 2.70121 18.8461 6.83158 -123.532 32.1838 154.108 -168.768 76.9656 -164.776 0.0948327 -16.3463 -25.4561 -70.0216 36.1578 -139.927 13.5118 -3.46888 -103.293 0.420957 0.000575954 0.35866 -1.70867 6.2283 42.0177 -127.553 -14.8769 71.8612 3.98182 1.77806 113.259 0.58676 0.000331093 0.0646653 -52.5251 9.77833 101.376 -2.32762 42.1465 -2.49344 -0.609638 -19.8117 -1.71657 3.49243 -10.6845 16.5902 -26.3421 -13.6762 85.8994 3.21373 45.7359 7.72658 0.935817 -0.308809 0.0488907 1.53604 -8.62131 -5.67809 
60.8929 92.652 161.2 67.299 -39.538 -13.9314 -70.1915 0 88.8779 78.4514 70.8663 3.81194 1.87744 19.1361 6.02482 -124.133 31.9434 156.352 -171.62 76.0803 -161.61 0.0383243 -16.6619 -25.5785 -71.3776 36.7497 -140.315 12.8918 -2.94539 -101.833 0.420957 0.000575954 0.35866 -1.76774 6.50435 41.7065 -124.341 -17.9552 73.4045 2.27965 1.05885 113.696 0.58676 0.000331093 0.0646653 -52.953 10.1646 102.852 -2.38342 43.6377 -1.84269 -1.36322 -21.568 -1.92371 4.28015 -11.8165 16.2813 -23.2903 -13.821 87.7331 4.09689 50.2361 9.64545 1.36046 0.386752 -0.0670951 1.78049 -10.6924 -7.00585 
61.2414 91.7829 161.811 67.4911 -41.9525 -15.2419 -70.1915 0 88.8779 83.9667 70.7387 -1.51025 0.461321 18.8789 6.00243 -125.464 31.673 159.759 -170.23 74.8347 -162.83 -0.0303699 -16.9772 -25.8841 -74.2394 37.8845 -139.338 12.7724 -2.53927 -100.267 0.420957 0.000575954 0.35866 -1.76059 6.59174 41.2291 -115.55 -24.2275 77.0373 -0.284499 -0.0757715 112.818 0.58676 0.000331093 0.0646653 -53.99 10.3096 104.539 -2.68888 45.7091 -2.50785 -1.10143 -22.6657 -2.01178 5.3789 -13.7157 19.3282 -20.3771 -12.6523 92.1278 4.75713 53.1267 10.6757 -1.04246 0.880042 0.220875 2.25609 -18.2515 -2.25726 
